<svg width="52" height="70" viewBox="0 0 52 70" fill="none" xmlns="http://www.w3.org/2000/svg">
<path d="M25.7895 0C28.7208 0 31.5321 1.16447 33.6049 3.23724C35.6776 5.31001 36.8421 8.12129 36.8421 11.0526V33.1579C36.8421 36.0892 35.6776 38.9005 33.6049 40.9733C31.5321 43.0461 28.7208 44.2105 25.7895 44.2105C22.8581 44.2105 20.0469 43.0461 17.9741 40.9733C15.9013 38.9005 14.7368 36.0892 14.7368 33.1579V11.0526C14.7368 8.12129 15.9013 5.31001 17.9741 3.23724C20.0469 1.16447 22.8581 0 25.7895 0ZM51.5789 33.1579C51.5789 46.1632 41.9632 56.8842 29.4737 58.6895V70H22.1053V58.6895C9.61579 56.8842 0 46.1632 0 33.1579H7.36842C7.36842 38.0435 9.3092 42.7289 12.7638 46.1835C16.2184 49.6382 20.9039 51.5789 25.7895 51.5789C30.675 51.5789 35.3605 49.6382 38.8151 46.1835C42.2697 42.7289 44.2105 38.0435 44.2105 33.1579H51.5789Z" fill="white"/>
</svg>
